<svg viewBox="0 0 600 680" xmlns="http://www.w3.org/2000/svg" preserveAspectRatio="xMidYMid slice">
  <defs>
    <linearGradient id="cpaper" x1="0" y1="0" x2="0" y2="1">
      <stop offset="0" stop-color="#f8f5f0"></stop>
      <stop offset="1" stop-color="#ece6dd"></stop>
    </linearGradient>
  </defs>
  <rect width="600" height="680" fill="url(#cpaper)"></rect>
  <line x1="0" y1="600" x2="600" y2="600" stroke="#cbc2b6" stroke-width="2"></line>
  <ellipse cx="300" cy="606" rx="160" ry="14" fill="#2a1f10" opacity="0.12"></ellipse>
  
  <path d="M170 600 L170 250 A130 130 0 0 1 430 250 L430 600" fill="none" stroke="#26221e" stroke-width="3"></path>
  <path d="M184 600 L184 250 A116 116 0 0 1 416 250 L416 600" fill="#f4f0ea" stroke="#26221e" stroke-width="1.5"></path>
  
  <path d="M196 598 L196 252 A104 104 0 0 1 404 252 L404 598 Z" fill="#efe9e1" stroke="#26221e" stroke-width="2"></path>
  
  <path d="M214 252 A86 86 0 0 1 386 252 Z" fill="#e4ebed" stroke="#26221e" stroke-width="1.5"></path>
  <g stroke="#26221e" stroke-width="1.1">
    <line x1="300" y1="252" x2="300" y2="166"></line>
    <line x1="300" y1="252" x2="240" y2="192"></line>
    <line x1="300" y1="252" x2="360" y2="192"></line>
    <line x1="300" y1="252" x2="216" y2="252"></line>
    <line x1="300" y1="252" x2="384" y2="252"></line>
  </g>
  
  <rect x="220" y="300" width="160" height="270" fill="none" stroke="#cdc4b7" stroke-width="2"></rect>
  <g stroke="#cdc4b7" stroke-width="1.2" clip-path="url(#cclip)">
  </g>
  <g stroke="#d3cabd" stroke-width="1.3">
    <line x1="226" y1="320" x2="300" y2="346"></line>
    <line x1="374" y1="320" x2="300" y2="346"></line>
    <line x1="226" y1="360" x2="300" y2="386"></line>
    <line x1="374" y1="360" x2="300" y2="386"></line>
    <line x1="226" y1="400" x2="300" y2="426"></line>
    <line x1="374" y1="400" x2="300" y2="426"></line>
    <line x1="226" y1="440" x2="300" y2="466"></line>
    <line x1="374" y1="440" x2="300" y2="466"></line>
    <line x1="226" y1="480" x2="300" y2="506"></line>
    <line x1="374" y1="480" x2="300" y2="506"></line>
    <line x1="226" y1="520" x2="300" y2="546"></line>
    <line x1="374" y1="520" x2="300" y2="546"></line>
  </g>
  <line x1="300" y1="312" x2="300" y2="558" stroke="#cdc4b7" stroke-width="1.2"></line>
  
  <rect x="356" y="380" width="7" height="110" rx="3.5" fill="#d47e19" stroke="#b3680f" stroke-width="1"></rect>
</svg>