<svg viewBox="0 0 600 680" xmlns="http://www.w3.org/2000/svg" preserveAspectRatio="xMidYMid slice">
  <defs>
    <linearGradient id="fpaper" x1="0" y1="0" x2="0" y2="1">
      <stop offset="0" stop-color="#f8f5f0"></stop>
      <stop offset="1" stop-color="#ece6dd"></stop>
    </linearGradient>
  </defs>
  <rect width="600" height="680" fill="url(#fpaper)"></rect>
  <line x1="0" y1="600" x2="600" y2="600" stroke="#cbc2b6" stroke-width="2"></line>
  <ellipse cx="300" cy="606" rx="168" ry="14" fill="#2a1f10" opacity="0.12"></ellipse>
  
  <rect x="160" y="64" width="280" height="536" fill="none" stroke="#26221e" stroke-width="3"></rect>
  <rect x="174" y="78" width="252" height="522" fill="#f4f0ea" stroke="#26221e" stroke-width="1.5"></rect>
  
  <rect x="190" y="92" width="220" height="46" fill="#e4ebed" stroke="#26221e" stroke-width="1.5"></rect>
  <line x1="263" y1="92" x2="263" y2="138" stroke="#26221e" stroke-width="1.2"></line>
  <line x1="337" y1="92" x2="337" y2="138" stroke="#26221e" stroke-width="1.2"></line>
  
  <rect x="190" y="150" width="220" height="448" fill="#efe9e1" stroke="#26221e" stroke-width="2"></rect>
  
  <rect x="210" y="170" width="180" height="150" fill="#e4ebed" stroke="#26221e" stroke-width="1.5"></rect>
  <line x1="300" y1="170" x2="300" y2="320" stroke="#26221e" stroke-width="1.2"></line>
  <line x1="210" y1="245" x2="390" y2="245" stroke="#26221e" stroke-width="1.2"></line>
  
  <line x1="190" y1="360" x2="410" y2="360" stroke="#26221e" stroke-width="1.5"></line>
  
  <rect x="210" y="384" width="80" height="190" fill="none" stroke="#cdc4b7" stroke-width="2"></rect>
  <rect x="216" y="390" width="68" height="178" fill="none" stroke="#cdc4b7" stroke-width="1.2"></rect>
  <rect x="310" y="384" width="80" height="190" fill="none" stroke="#cdc4b7" stroke-width="2"></rect>
  <rect x="316" y="390" width="68" height="178" fill="none" stroke="#cdc4b7" stroke-width="1.2"></rect>
  
  <circle cx="372" cy="352" r="8" fill="#d47e19" stroke="#b3680f" stroke-width="1"></circle>
</svg>